<svg width="50" height="50" viewBox="0 0 50 50" fill="none" xmlns="http://www.w3.org/2000/svg">
<path d="M13.0211 0.337318C12.5747 0.744087 12.4656 1.3592 12.7334 1.93463C13.0608 2.61919 12.1879 2.57951 25.5888 2.61919C37.5414 2.64896 37.7398 2.64896 38.6524 2.8573C41.0528 3.41289 42.5804 4.2165 44.0782 5.7146C45.705 7.33175 46.6572 9.2763 47.1829 12.0642C47.3317 12.8777 47.3516 14.0583 47.3516 25.0113C47.3516 35.9643 47.3317 37.1449 47.1829 37.9584C46.6572 40.7463 45.705 42.6909 44.0782 44.308C42.5407 45.8557 40.8644 46.7089 38.4143 47.205C37.591 47.3737 36.6884 47.3836 24.9837 47.3836C13.279 47.3836 12.3763 47.3737 11.553 47.205C9.10297 46.7089 7.42662 45.8557 5.88914 44.308C4.2723 42.7008 3.33989 40.7959 2.79434 38.0081C2.64555 37.254 2.61579 35.8651 2.56619 25.5272L2.5166 13.8797L2.18926 13.592C1.91152 13.344 1.79249 13.3043 1.28661 13.3043C0.641861 13.3043 0.294688 13.4928 0.0963029 13.969C0.00702976 14.1873 -0.0128087 17.2331 0.00702976 26.053L0.0367875 37.8592L0.26493 38.9307C0.9196 42.0063 2.08015 44.2782 4.00448 46.193C5.83954 48.0384 7.81347 49.0801 10.6504 49.725L11.6423 49.9532L24.3885 49.9928C33.4845 50.0127 37.4026 49.9928 38.0771 49.9135C44.5147 49.1396 48.889 44.7049 49.8215 38.018C50.0595 36.3611 50.0595 13.6615 49.8215 12.0046C49.3354 8.51237 47.9467 5.65508 45.7248 3.56171C43.979 1.91479 41.9853 0.902828 39.317 0.297634L38.3251 0.0694466L25.8566 0.0396843L13.3782 0L13.0211 0.337318Z" fill="#919191"/>
<path d="M23.4462 14.2866C23.2875 14.3858 20.9366 16.6974 18.2187 19.4158C13.0111 24.6542 13.0707 24.5847 13.2294 25.3288C13.2889 25.5868 14.3205 26.688 18.2683 30.6466C21.006 33.3948 23.3668 35.7064 23.5156 35.7858C24.1306 36.1032 25.0134 35.8453 25.3308 35.2401C25.4102 35.0714 25.4796 34.754 25.4796 34.5158V34.0992L21.5913 30.2001L17.693 26.3011H26.779H35.8651L36.2023 26.0729C36.4205 25.9241 36.5892 25.6959 36.6884 25.428C36.8173 25.061 36.8173 24.9617 36.6884 24.5947C36.5892 24.3268 36.4205 24.0986 36.2023 23.9498L35.8651 23.7216H26.779H17.693L21.5615 19.8523L25.43 15.9831V15.3779C25.43 14.8124 25.4102 14.7628 25.063 14.4354C24.7456 14.1477 24.6167 14.0981 24.2199 14.0981C23.9223 14.0981 23.6346 14.1675 23.4462 14.2866Z" fill="#919191"/>
</svg>
